<?xml version="1.0" encoding="utf-8" standalone="no"?>
<!DOCTYPE svg PUBLIC "-//W3C//DTD SVG 1.1//EN"
  "http://www.w3.org/Graphics/SVG/1.1/DTD/svg11.dtd">
<svg xmlns:xlink="http://www.w3.org/1999/xlink" width="565.675pt" height="222.5088pt" viewBox="0 0 565.675 222.5088" xmlns="http://www.w3.org/2000/svg" version="1.1">
 <metadata>
  <rdf:RDF xmlns:dc="http://purl.org/dc/elements/1.1/" xmlns:cc="http://creativecommons.org/ns#" xmlns:rdf="http://www.w3.org/1999/02/22-rdf-syntax-ns#">
   <cc:Work>
    <dc:type rdf:resource="http://purl.org/dc/dcmitype/StillImage"/>
    <dc:format>image/svg+xml</dc:format>
    <dc:creator>
     <cc:Agent>
      <dc:title>PGRR method figure generator</dc:title>
     </cc:Agent>
    </dc:creator>
   </cc:Work>
  </rdf:RDF>
 </metadata>
 <defs>
  <style type="text/css">*{stroke-linejoin: round; stroke-linecap: butt}</style>
 </defs>
 <g id="figure_1">
  <g id="patch_1">
   <path d="M 0 222.5088
L 565.675 222.5088
L 565.675 0
L 0 0
z
" style="fill: #ffffff"/>
  </g>
  <g id="axes_1">
   <g id="patch_2">
    <path d="M 190.309715 75.5424
Q 198.708106 75.5424 206.100266 75.5424
" clip-path="url(#p73f41e25ad)" style="fill: none; stroke: #53616a; stroke-width: 0.9; stroke-linecap: round"/>
    <path d="M 202.700266 73.8424
L 206.100266 75.5424
L 202.700266 77.2424
z
" clip-path="url(#p73f41e25ad)" style="fill: #53616a; stroke: #53616a; stroke-width: 0.9; stroke-linecap: round"/>
   </g>
   <g id="patch_3">
    <path d="M 351.151955 75.5424
Q 359.550346 75.5424 366.942506 75.5424
" clip-path="url(#p73f41e25ad)" style="fill: none; stroke: #53616a; stroke-width: 0.9; stroke-linecap: round"/>
    <path d="M 363.542506 73.8424
L 366.942506 75.5424
L 363.542506 77.2424
z
" clip-path="url(#p73f41e25ad)" style="fill: #53616a; stroke: #53616a; stroke-width: 0.9; stroke-linecap: round"/>
   </g>
   <g id="patch_4">
    <path d="M 440.215446 89.482922
Q 440.215446 106.990347 440.215446 123.491541
" clip-path="url(#p73f41e25ad)" style="fill: none; stroke: #53616a; stroke-width: 0.9; stroke-linecap: round"/>
    <path d="M 441.915446 120.091541
L 440.215446 123.491541
L 438.515446 120.091541
z
" clip-path="url(#p73f41e25ad)" style="fill: #53616a; stroke: #53616a; stroke-width: 0.9; stroke-linecap: round"/>
   </g>
   <g id="patch_5">
    <path d="M 367.941797 138.4416
Q 359.543406 138.4416 352.151246 138.4416
" clip-path="url(#p73f41e25ad)" style="fill: none; stroke: #53616a; stroke-width: 0.9; stroke-linecap: round"/>
    <path d="M 355.551246 140.1416
L 352.151246 138.4416
L 355.551246 136.7416
z
" clip-path="url(#p73f41e25ad)" style="fill: #53616a; stroke: #53616a; stroke-width: 0.9; stroke-linecap: round"/>
   </g>
   <g id="patch_6">
    <path d="M 207.099557 138.4416
Q 198.701166 138.4416 191.309006 138.4416
" clip-path="url(#p73f41e25ad)" style="fill: none; stroke: #53616a; stroke-width: 0.9; stroke-linecap: round"/>
    <path d="M 194.709006 140.1416
L 191.309006 138.4416
L 194.709006 136.7416
z
" clip-path="url(#p73f41e25ad)" style="fill: #53616a; stroke: #53616a; stroke-width: 0.9; stroke-linecap: round"/>
   </g>
   <g id="text_1">
    <text style="font-weight: 600; font-size: 6.4px; font-family: 'Arial', 'Liberation Sans', 'DejaVu Sans', sans-serif; text-anchor: start; fill: #356e9f" x="47.76038" y="54.215" transform="rotate(-0 47.76038 54.215)">1  Freeze inputs</text>
   </g>
   <g id="patch_7">
    <path d="M 52.214473 89.5392
L 184.352559 89.5392
Q 193.260745 89.5392 193.260745 86.4288
L 193.260745 64.4832
Q 193.260745 61.3728 184.352559 61.3728
L 52.214473 61.3728
Q 43.306287 61.3728 43.306287 64.4832
L 43.306287 86.4288
Q 43.306287 89.5392 52.214473 89.5392
z
" clip-path="url(#p73f41e25ad)" style="fill: #eaf2f8; stroke: #356e9f; stroke-linejoin: miter"/>
   </g>
   <g id="text_2">
    <text style="font-weight: 600; font-size: 6.4px; font-family: 'Arial', 'Liberation Sans', 'DejaVu Sans', sans-serif; text-anchor: start; fill: #00866f" x="208.60262" y="54.215" transform="rotate(-0 208.60262 54.215)">2  Execute conditions</text>
   </g>
   <g id="patch_8">
    <path d="M 213.056713 89.5392
L 345.194799 89.5392
Q 354.102985 89.5392 354.102985 86.4288
L 354.102985 64.4832
Q 354.102985 61.3728 345.194799 61.3728
L 213.056713 61.3728
Q 204.148527 61.3728 204.148527 64.4832
L 204.148527 86.4288
Q 204.148527 89.5392 213.056713 89.5392
z
" clip-path="url(#p73f41e25ad)" style="fill: #e8f6f3; stroke: #00866f; stroke-linejoin: miter"/>
   </g>
   <g id="text_3">
    <text style="font-weight: 600; font-size: 6.4px; font-family: 'Arial', 'Liberation Sans', 'DejaVu Sans', sans-serif; text-anchor: start; fill: #d55e00" x="369.44486" y="54.215" transform="rotate(-0 369.44486 54.215)">3  Preserve outcomes</text>
   </g>
   <g id="patch_9">
    <path d="M 373.898953 89.5392
L 506.037039 89.5392
Q 514.945225 89.5392 514.945225 86.4288
L 514.945225 64.4832
Q 514.945225 61.3728 506.037039 61.3728
L 373.898953 61.3728
Q 364.990767 61.3728 364.990767 64.4832
L 364.990767 86.4288
Q 364.990767 89.5392 373.898953 89.5392
z
" clip-path="url(#p73f41e25ad)" style="fill: #fff4e6; stroke: #d55e00; stroke-linejoin: miter"/>
   </g>
   <g id="text_4">
    <text style="font-weight: 600; font-size: 6.4px; font-family: 'Arial', 'Liberation Sans', 'DejaVu Sans', sans-serif; text-anchor: start; fill: #356e9f" x="369.44486" y="117.273" transform="rotate(-0 369.44486 117.273)">4  Checked-in ledger</text>
   </g>
   <g id="patch_10">
    <path d="M 373.898953 152.6112
L 506.037039 152.6112
Q 514.945225 152.6112 514.945225 149.5008
L 514.945225 127.5552
Q 514.945225 124.4448 506.037039 124.4448
L 373.898953 124.4448
Q 364.990767 124.4448 364.990767 127.5552
L 364.990767 149.5008
Q 364.990767 152.6112 373.898953 152.6112
z
" clip-path="url(#p73f41e25ad)" style="fill: #eaf2f8; stroke: #356e9f; stroke-linejoin: miter"/>
   </g>
   <g id="text_5">
    <text style="font-weight: 600; font-size: 6.4px; font-family: 'Arial', 'Liberation Sans', 'DejaVu Sans', sans-serif; text-anchor: start; fill: #00866f" x="208.60262" y="117.273" transform="rotate(-0 208.60262 117.273)">5  Preregistered analysis</text>
   </g>
   <g id="patch_11">
    <path d="M 213.056713 152.6112
L 345.194799 152.6112
Q 354.102985 152.6112 354.102985 149.5008
L 354.102985 127.5552
Q 354.102985 124.4448 345.194799 124.4448
L 213.056713 124.4448
Q 204.148527 124.4448 204.148527 127.5552
L 204.148527 149.5008
Q 204.148527 152.6112 213.056713 152.6112
z
" clip-path="url(#p73f41e25ad)" style="fill: #e8f6f3; stroke: #00866f; stroke-linejoin: miter"/>
   </g>
   <g id="text_6">
    <text style="font-weight: 600; font-size: 6.4px; font-family: 'Arial', 'Liberation Sans', 'DejaVu Sans', sans-serif; text-anchor: start; fill: #356e9f" x="47.76038" y="117.287" transform="rotate(-0 47.76038 117.287)">6  Generated artifacts</text>
   </g>
   <g id="patch_12">
    <path d="M 52.214473 152.6112
L 184.352559 152.6112
Q 193.260745 152.6112 193.260745 149.5008
L 193.260745 127.5552
Q 193.260745 124.4448 184.352559 124.4448
L 52.214473 124.4448
Q 43.306287 124.4448 43.306287 127.5552
L 43.306287 149.5008
Q 43.306287 152.6112 52.214473 152.6112
z
" clip-path="url(#p73f41e25ad)" style="fill: #eaf2f8; stroke: #356e9f; stroke-linejoin: miter"/>
   </g>
   <g id="text_7">
    <text style="font-weight: 600; font-size: 6.4px; font-family: 'Arial', 'Liberation Sans', 'DejaVu Sans', sans-serif; text-anchor: middle; fill: #1b1f23" x="282.8375" y="169.977" transform="rotate(-0 282.8375 169.977)">Validation selects; locked test estimates. Infrastructure retries never replace algorithm outcomes.</text>
   </g>
   <g id="text_8">
    <text style="font-size: 6.4px; font-family: 'Arial', 'Liberation Sans', 'DejaVu Sans', sans-serif; fill: #1b1f23" transform="translate(90.896016 74.01205)">scenario/map splits</text>
    <text style="font-size: 6.4px; font-family: 'Arial', 'Liberation Sans', 'DejaVu Sans', sans-serif; fill: #1b1f23" transform="translate(77.993516 80.20995)">configs + checkpoint hashes</text>
   </g>
   <g id="text_9">
    <text style="font-size: 6.4px; font-family: 'Arial', 'Liberation Sans', 'DejaVu Sans', sans-serif; fill: #1b1f23" transform="translate(250.135256 74.01205)">same condition keys</text>
    <text style="font-size: 6.4px; font-family: 'Arial', 'Liberation Sans', 'DejaVu Sans', sans-serif; fill: #1b1f23" transform="translate(252.449256 80.20995)">across all methods</text>
   </g>
   <g id="text_10">
    <text style="font-size: 6.4px; font-family: 'Arial', 'Liberation Sans', 'DejaVu Sans', sans-serif; fill: #1b1f23" transform="translate(406.355996 74.01205)">goal · collision · timeout</text>
    <text style="font-size: 6.4px; font-family: 'Arial', 'Liberation Sans', 'DejaVu Sans', sans-serif; fill: #1b1f23" transform="translate(397.817996 80.20995)">planner/simulator/reset failure</text>
   </g>
   <g id="text_11">
    <text style="font-size: 6.4px; font-family: 'Arial', 'Liberation Sans', 'DejaVu Sans', sans-serif; text-anchor: middle; fill: #1b1f23" x="439.967996" y="140.183" transform="rotate(-0 439.967996 140.183)">Parquet · CSV · JSON</text>
   </g>
   <g id="text_12">
    <text style="font-size: 6.4px; font-family: 'Arial', 'Liberation Sans', 'DejaVu Sans', sans-serif; fill: #1b1f23" transform="translate(247.826256 137.08405)">paired tests · intervals</text>
    <text style="font-size: 6.4px; font-family: 'Arial', 'Liberation Sans', 'DejaVu Sans', sans-serif; fill: #1b1f23" transform="translate(247.291756 143.28195)">global Holm correction</text>
   </g>
   <g id="text_13">
    <text style="font-size: 6.4px; font-family: 'Arial', 'Liberation Sans', 'DejaVu Sans', sans-serif; fill: #1b1f23" transform="translate(97.297516 137.08405)">figures · tables</text>
    <text style="font-size: 6.4px; font-family: 'Arial', 'Liberation Sans', 'DejaVu Sans', sans-serif; fill: #1b1f23" transform="translate(89.295516 143.28195)">paper · report · deck</text>
   </g>
  </g>
  <g id="text_14">
   <text style="font-weight: 600; font-size: 8.4px; font-family: 'Arial', 'Liberation Sans', 'DejaVu Sans', sans-serif; text-anchor: start; fill: #1b1f23" x="37.9655" y="8.247375" transform="rotate(-0 37.9655 8.247375)">Evaluation evidence chain: frozen inputs to auditable claims</text>
  </g>
  <g id="text_15">
   <text style="font-size: 6.4px; font-family: 'Arial', 'Liberation Sans', 'DejaVu Sans', sans-serif; text-anchor: middle; fill: #53616a" x="282.8375" y="219.0208" transform="rotate(-0 282.8375 219.0208)">Original PGRR evidence-flow schematic; not a runtime result. Basis: Nav2 DWB Controller docs + navigation2/nav2_dwb_controller/README.md; Ross, Gordon &amp; Bagnell (2011), PMLR 15:627-635.</text>
  </g>
 </g>
 <defs>
  <clipPath id="p73f41e25ad">
   <rect x="35.3879" y="17.136" width="494.8992" height="172.8"/>
  </clipPath>
 </defs>
</svg>
