<?xml version="1.0" encoding="utf-8" standalone="no"?>
<!DOCTYPE svg PUBLIC "-//W3C//DTD SVG 1.1//EN"
  "http://www.w3.org/Graphics/SVG/1.1/DTD/svg11.dtd">
<svg xmlns:xlink="http://www.w3.org/1999/xlink" width="499.2192pt" height="222.5088pt" viewBox="0 0 499.2192 222.5088" xmlns="http://www.w3.org/2000/svg" version="1.1">
 <metadata>
  <rdf:RDF xmlns:dc="http://purl.org/dc/elements/1.1/" xmlns:cc="http://creativecommons.org/ns#" xmlns:rdf="http://www.w3.org/1999/02/22-rdf-syntax-ns#">
   <cc:Work>
    <dc:type rdf:resource="http://purl.org/dc/dcmitype/StillImage"/>
    <dc:format>image/svg+xml</dc:format>
    <dc:creator>
     <cc:Agent>
      <dc:title>PGRR method figure generator</dc:title>
     </cc:Agent>
    </dc:creator>
   </cc:Work>
  </rdf:RDF>
 </metadata>
 <defs>
  <style type="text/css">*{stroke-linejoin: round; stroke-linecap: butt}</style>
 </defs>
 <g id="figure_1">
  <g id="patch_1">
   <path d="M 0 222.5088
L 499.2192 222.5088
L 499.2192 0
L 0 0
z
" style="fill: #ffffff"/>
  </g>
  <g id="axes_1">
   <g id="patch_2">
    <path d="M 23.440666 159.696
L 213.481958 159.696
Q 222.390144 159.696 222.390144 156.5856
L 222.390144 126.5184
Q 222.390144 123.408 213.481958 123.408
L 23.440666 123.408
Q 14.53248 123.408 14.53248 126.5184
L 14.53248 156.5856
Q 14.53248 159.696 23.440666 159.696
z
" clip-path="url(#pa8b9ab98d3)" style="fill: #fafbfc; stroke-dasharray: 2.96,1.28; stroke-dashoffset: 0; stroke: #aab5bc; stroke-width: 0.8; stroke-linejoin: miter"/>
   </g>
   <g id="patch_3">
    <path d="M 82.846935 78.9984
Q 91.245326 78.9984 98.637486 78.9984
" clip-path="url(#pa8b9ab98d3)" style="fill: none; stroke: #53616a; stroke-width: 0.9; stroke-linecap: round"/>
    <path d="M 95.237486 77.2984
L 98.637486 78.9984
L 95.237486 80.6984
z
" clip-path="url(#pa8b9ab98d3)" style="fill: #53616a; stroke: #53616a; stroke-width: 0.9; stroke-linecap: round"/>
   </g>
   <g id="patch_4">
    <path d="M 174.403287 78.9984
Q 182.801678 78.9984 190.193838 78.9984
" clip-path="url(#pa8b9ab98d3)" style="fill: none; stroke: #53616a; stroke-width: 0.9; stroke-linecap: round"/>
    <path d="M 186.793838 77.2984
L 190.193838 78.9984
L 186.793838 80.6984
z
" clip-path="url(#pa8b9ab98d3)" style="fill: #53616a; stroke: #53616a; stroke-width: 0.9; stroke-linecap: round"/>
   </g>
   <g id="patch_5">
    <path d="M 265.959639 78.9984
Q 269.409017 78.9984 271.852164 78.9984
" clip-path="url(#pa8b9ab98d3)" style="fill: none; stroke: #53616a; stroke-width: 0.9; stroke-linecap: round"/>
    <path d="M 268.452164 77.2984
L 271.852164 78.9984
L 268.452164 80.6984
z
" clip-path="url(#pa8b9ab98d3)" style="fill: #53616a; stroke: #53616a; stroke-width: 0.9; stroke-linecap: round"/>
   </g>
   <g id="patch_6">
    <path d="M 340.194519 78.9984
Q 343.643897 78.9984 346.087044 78.9984
" clip-path="url(#pa8b9ab98d3)" style="fill: none; stroke: #00866f; stroke-width: 0.9; stroke-linecap: round"/>
    <path d="M 342.687044 77.2984
L 346.087044 78.9984
L 342.687044 80.6984
z
" clip-path="url(#pa8b9ab98d3)" style="fill: #00866f; stroke: #00866f; stroke-width: 0.9; stroke-linecap: round"/>
   </g>
   <g id="patch_7">
    <path d="M 434.219326 78.9984
Q 440.143042 78.9984 445.060528 78.9984
" clip-path="url(#pa8b9ab98d3)" style="fill: none; stroke: #53616a; stroke-width: 0.9; stroke-linecap: round"/>
    <path d="M 441.660528 77.2984
L 445.060528 78.9984
L 441.660528 80.6984
z
" clip-path="url(#pa8b9ab98d3)" style="fill: #53616a; stroke: #53616a; stroke-width: 0.9; stroke-linecap: round"/>
   </g>
   <g id="patch_8">
    <path d="M 306.523008 94.322609
Q 306.523008 106.388008 306.523008 117.447176
" clip-path="url(#pa8b9ab98d3)" style="fill: none; stroke-dasharray: 3.33,1.44; stroke-dashoffset: 0; stroke: #d55e00; stroke-width: 0.9; stroke-linecap: round"/>
    <path d="M 308.223008 114.047176
L 306.523008 117.447176
L 304.823008 114.047176
z
" clip-path="url(#pa8b9ab98d3)" style="fill: #d55e00; stroke-dasharray: 3.33,1.44; stroke-dashoffset: 0; stroke: #d55e00; stroke-width: 0.9; stroke-linecap: round"/>
   </g>
   <g id="patch_9">
    <path d="M 18.986573 92.1312
L 76.889779 92.1312
Q 85.797965 92.1312 85.797965 89.0208
L 85.797965 68.8032
Q 85.797965 65.6928 76.889779 65.6928
L 18.986573 65.6928
Q 10.078387 65.6928 10.078387 68.8032
L 10.078387 89.0208
Q 10.078387 92.1312 18.986573 92.1312
z
" clip-path="url(#pa8b9ab98d3)" style="fill: #eaf2f8; stroke: #356e9f; stroke-linejoin: miter"/>
   </g>
   <g id="patch_10">
    <path d="M 105.593933 92.1312
L 168.446131 92.1312
Q 177.354317 92.1312 177.354317 89.0208
L 177.354317 68.8032
Q 177.354317 65.6928 168.446131 65.6928
L 105.593933 65.6928
Q 96.685747 65.6928 96.685747 68.8032
L 96.685747 89.0208
Q 96.685747 92.1312 105.593933 92.1312
z
" clip-path="url(#pa8b9ab98d3)" style="fill: #e8f6f3; stroke: #00866f; stroke-linejoin: miter"/>
   </g>
   <g id="patch_11">
    <path d="M 197.150285 92.1312
L 260.002483 92.1312
Q 268.910669 92.1312 268.910669 89.0208
L 268.910669 68.8032
Q 268.910669 65.6928 260.002483 65.6928
L 197.150285 65.6928
Q 188.242099 65.6928 188.242099 68.8032
L 188.242099 89.0208
Q 188.242099 92.1312 197.150285 92.1312
z
" clip-path="url(#pa8b9ab98d3)" style="fill: #e8f6f3; stroke: #00866f; stroke-linejoin: miter"/>
   </g>
   <g id="patch_12">
    <path d="M 353.043533 92.1312
L 428.268211 92.1312
Q 437.176397 92.1312 437.176397 89.0208
L 437.176397 68.8032
Q 437.176397 65.6928 428.268211 65.6928
L 353.043533 65.6928
Q 344.135347 65.6928 344.135347 68.8032
L 344.135347 89.0208
Q 344.135347 92.1312 353.043533 92.1312
z
" clip-path="url(#pa8b9ab98d3)" style="fill: #eaf2f8; stroke: #356e9f; stroke-linejoin: miter"/>
   </g>
   <g id="patch_13">
    <path d="M 452.023373 92.1312
L 480.232627 92.1312
Q 489.140813 92.1312 489.140813 89.0208
L 489.140813 68.8032
Q 489.140813 65.6928 480.232627 65.6928
L 452.023373 65.6928
Q 443.115187 65.6928 443.115187 68.8032
L 443.115187 89.0208
Q 443.115187 92.1312 452.023373 92.1312
z
" clip-path="url(#pa8b9ab98d3)" style="fill: #e8f6f3; stroke: #00866f; stroke-linejoin: miter"/>
   </g>
   <g id="patch_14">
    <path d="M 306.523008 65.1744
L 338.691456 78.9984
L 306.523008 92.8224
L 274.35456 78.9984
z
" clip-path="url(#pa8b9ab98d3)" style="fill: #fff4e6; stroke: #d55e00; stroke-width: 1.05; stroke-linejoin: miter"/>
   </g>
   <g id="patch_15">
    <path d="M 256.538189 139.6512
L 356.507827 139.6512
Q 365.416013 139.6512 365.416013 136.5408
L 365.416013 121.5072
Q 365.416013 118.3968 356.507827 118.3968
L 256.538189 118.3968
Q 247.630003 118.3968 247.630003 121.5072
L 247.630003 136.5408
Q 247.630003 139.6512 256.538189 139.6512
z
" clip-path="url(#pa8b9ab98d3)" style="fill: #fff4e6; stroke: #d55e00; stroke-linejoin: miter"/>
   </g>
   <g id="text_1">
    <text style="font-weight: 600; font-size: 6.4px; font-family: 'Arial', 'Liberation Sans', 'DejaVu Sans', sans-serif; text-anchor: start; fill: #53616a" x="29.379456" y="133.703" transform="rotate(-0 29.379456 133.703)">Split discipline</text>
   </g>
   <g id="text_2">
    <text style="font-size: 6.4px; font-family: 'Arial', 'Liberation Sans', 'DejaVu Sans', sans-serif; fill: #1b1f23" transform="translate(46.075312 144.0802)">rollouts: train only   ·   model choice: validation only</text>
    <text style="font-size: 6.4px; font-family: 'Arial', 'Liberation Sans', 'DejaVu Sans', sans-serif; fill: #1b1f23" transform="translate(43.046312 150.9738)">locked test: never used for labels, tuning, or selection</text>
   </g>
   <g id="patch_16">
    <path d="M 382.737485 143.1072
L 467.860147 143.1072
Q 476.768333 143.1072 476.768333 139.9968
L 476.768333 126.6912
Q 476.768333 123.5808 467.860147 123.5808
L 382.737485 123.5808
Q 373.829299 123.5808 373.829299 126.6912
L 373.829299 139.9968
Q 373.829299 143.1072 382.737485 143.1072
z
" clip-path="url(#pa8b9ab98d3)" style="fill: #fff4e6; stroke: #d55e00; stroke-linejoin: miter"/>
   </g>
   <g id="text_3">
    <text style="font-size: 6.4px; font-family: 'Arial', 'Liberation Sans', 'DejaVu Sans', sans-serif; fill: #53616a" transform="translate(380.585844 105.2002)">coverage retraining</text>
    <text style="font-size: 6.4px; font-family: 'Arial', 'Liberation Sans', 'DejaVu Sans', sans-serif; fill: #53616a" transform="translate(369.736344 112.0938)">is not a third DAgger round</text>
   </g>
   <g id="text_4">
    <text style="font-size: 6.4px; font-family: 'Arial', 'Liberation Sans', 'DejaVu Sans', sans-serif; fill: #1b1f23" transform="translate(31.402676 77.46805)">Uniform BC</text>
    <text style="font-size: 6.4px; font-family: 'Arial', 'Liberation Sans', 'DejaVu Sans', sans-serif; fill: #1b1f23" transform="translate(31.928676 83.66595)">expert data</text>
   </g>
   <g id="text_5">
    <text style="font-size: 6.4px; font-family: 'Arial', 'Liberation Sans', 'DejaVu Sans', sans-serif; fill: #1b1f23" transform="translate(114.429532 77.46805)">DAgger round 1</text>
    <text style="font-size: 6.4px; font-family: 'Arial', 'Liberation Sans', 'DejaVu Sans', sans-serif; fill: #1b1f23" transform="translate(118.256532 83.66595)">visit + relabel</text>
   </g>
   <g id="text_6">
    <text style="font-size: 6.4px; font-family: 'Arial', 'Liberation Sans', 'DejaVu Sans', sans-serif; fill: #1b1f23" transform="translate(205.985884 77.46805)">DAgger round 2</text>
    <text style="font-size: 6.4px; font-family: 'Arial', 'Liberation Sans', 'DejaVu Sans', sans-serif; fill: #1b1f23" transform="translate(209.812884 83.66595)">visit + relabel</text>
   </g>
   <g id="text_7">
    <text style="font-size: 6.4px; font-family: 'Arial', 'Liberation Sans', 'DejaVu Sans', sans-serif; fill: #1b1f23" transform="translate(362.369372 77.46805)">accepted aggregate</text>
    <text style="font-size: 6.4px; font-family: 'Arial', 'Liberation Sans', 'DejaVu Sans', sans-serif; fill: #1b1f23" transform="translate(360.685872 83.66595)">+ train-only coverage</text>
   </g>
   <g id="text_8">
    <text style="font-size: 6.4px; font-family: 'Arial', 'Liberation Sans', 'DejaVu Sans', sans-serif; fill: #1b1f23" transform="translate(457.235 77.46805)">freeze</text>
    <text style="font-size: 6.4px; font-family: 'Arial', 'Liberation Sans', 'DejaVu Sans', sans-serif; fill: #1b1f23" transform="translate(452.2525 83.66595)">best.onnx</text>
   </g>
   <g id="text_9">
    <text style="font-size: 7px; font-family: 'Arial', 'Liberation Sans', 'DejaVu Sans', sans-serif; fill: #1b1f23" transform="translate(291.736055 77.5459)">validation</text>
    <text style="font-size: 7px; font-family: 'Arial', 'Liberation Sans', 'DejaVu Sans', sans-serif; fill: #1b1f23" transform="translate(292.710039 84.071212)">selection</text>
   </g>
   <g id="text_10">
    <text style="font-size: 6.4px; font-family: 'Arial', 'Liberation Sans', 'DejaVu Sans', sans-serif; fill: #1b1f23" transform="translate(268.276508 127.58005)">round-2 candidate retained</text>
    <text style="font-size: 6.4px; font-family: 'Arial', 'Liberation Sans', 'DejaVu Sans', sans-serif; fill: #1b1f23" transform="translate(270.946008 133.77795)">but rejected on validation</text>
   </g>
   <g id="text_11">
    <text style="font-size: 6.4px; font-family: 'Arial', 'Liberation Sans', 'DejaVu Sans', sans-serif; fill: #1b1f23" transform="translate(403.601316 131.90005)">PPO is not part</text>
    <text style="font-size: 6.4px; font-family: 'Arial', 'Liberation Sans', 'DejaVu Sans', sans-serif; fill: #1b1f23" transform="translate(405.378316 138.09795)">of this release</text>
   </g>
   <g id="text_12">
    <g id="patch_17">
     <path d="M 323.901948 64.023
L 363.378948 64.023
L 363.378948 56.649
L 323.901948 56.649
z
" style="fill: #ffffff"/>
    </g>
    <text style="font-size: 6.4px; font-family: 'Arial', 'Liberation Sans', 'DejaVu Sans', sans-serif; text-anchor: middle; fill: #00866f" x="343.640448" y="61.991" transform="rotate(-0 343.640448 61.991)">selected path</text>
   </g>
   <g id="text_13">
    <g id="patch_18">
     <path d="M 253.921064 110.679
L 289.839064 110.679
L 289.839064 103.305
L 253.921064 103.305
z
" style="fill: #ffffff"/>
    </g>
    <text style="font-size: 6.4px; font-family: 'Arial', 'Liberation Sans', 'DejaVu Sans', sans-serif; text-anchor: middle; fill: #d55e00" x="271.880064" y="108.647" transform="rotate(-0 271.880064 108.647)">not selected</text>
   </g>
  </g>
  <g id="text_14">
   <text style="font-weight: 600; font-size: 8.4px; font-family: 'Arial', 'Liberation Sans', 'DejaVu Sans', sans-serif; text-anchor: start; fill: #1b1f23" x="4.7376" y="8.247375" transform="rotate(-0 4.7376 8.247375)">PGRR training provenance: two rounds run, validation chooses</text>
  </g>
  <g id="text_15">
   <text style="font-size: 6.4px; font-family: 'Arial', 'Liberation Sans', 'DejaVu Sans', sans-serif; text-anchor: middle; fill: #53616a" x="249.6096" y="219.0208" transform="rotate(-0 249.6096 219.0208)">Original project-specific DAgger adaptation; not a runtime result. Basis: Ross, Gordon &amp; Bagnell (2011), PMLR 15:627-635.</text>
  </g>
 </g>
 <defs>
  <clipPath id="pa8b9ab98d3">
   <rect x="2.16" y="17.136" width="494.8992" height="172.8"/>
  </clipPath>
 </defs>
</svg>
